<svg width="15" height="15" viewBox="0 0 15 15" fill="none" xmlns="http://www.w3.org/2000/svg">
<g clip-path="url(#clip0)">
<path d="M9.68171 9.50063C9.68171 9.50063 11.1155 10.9361 11.1193 10.9382C11.5764 11.3989 11.4582 12.2086 11.0246 12.6492L9.0246 14.7333C8.25208 15.5038 7.21984 14.4344 7.96973 13.6884L9.23848 12.4187L7.99633 11.1864L9.68171 9.50063ZM5.2225 9.50063C5.2225 9.50063 3.7908 10.9361 3.7908 10.9382C3.32984 11.3989 3.4481 12.2086 3.8768 12.6492L5.88564 14.7333C6.65515 15.5038 7.68758 14.4344 6.94145 13.6884L5.67478 12.4187L6.90732 11.1864L5.2225 9.50063ZM7.50199 4.16045C8.65041 4.16045 9.58212 3.23119 9.58212 2.0773C9.58212 0.930203 8.6506 0 7.50199 0C6.35244 0 5.41884 0.930203 5.41884 2.0773C5.41884 3.23025 6.3515 4.16045 7.50199 4.16045ZM9.75602 8.66756L9.78638 7.24849L11.5159 8.86182C11.6566 8.99573 11.8373 9.05911 12.018 9.05911C12.2132 9.05911 12.4116 8.98102 12.5561 8.82674C12.8335 8.52799 12.8178 8.06308 12.5208 7.78564C12.5208 7.78564 10.5384 5.6312 10.2532 5.38016C9.72584 4.91242 8.95237 4.64724 7.69739 4.64724H7.30377C6.04784 4.64724 5.27531 4.91242 4.7459 5.37922C4.46186 5.63026 2.47923 7.78564 2.47923 7.78564C2.18331 8.06289 2.16577 8.52799 2.44396 8.82674C2.58862 8.98102 2.78572 9.05911 2.98224 9.05911C3.16293 9.05911 3.34361 8.99573 3.48526 8.86182L5.21402 7.24943L5.24419 8.66831H9.75621V8.66756H9.75602Z" fill="#051854"/>
</g>
<defs>
<clipPath id="clip0">
<rect width="15" height="15" fill="white"/>
</clipPath>
</defs>
</svg>
