<svg width="15" height="15" viewBox="0 0 15 15" fill="none" xmlns="http://www.w3.org/2000/svg">
<path d="M5.46517 8.27519C5.46517 8.08729 5.31276 7.93506 5.1247 7.93506H3.9366C3.74876 7.93506 3.59631 8.08729 3.59631 8.27519V9.46314C3.59631 9.65129 3.74876 9.80358 3.9366 9.80358H5.1247C5.31276 9.80358 5.46517 9.65129 5.46517 9.46314V8.27519Z" fill="#051854"/>
<path d="M8.43448 8.27519C8.43448 8.08729 8.28204 7.93506 8.09435 7.93506H6.90608C6.71824 7.93506 6.5658 8.08729 6.5658 8.27519V9.46314C6.5658 9.65129 6.71824 9.80358 6.90608 9.80358H8.09435C8.28204 9.80358 8.43448 9.65129 8.43448 9.46314V8.27519Z" fill="#051854"/>
<path d="M11.4036 8.27519C11.4036 8.08729 11.2512 7.93506 11.0634 7.93506H9.87526C9.6872 7.93506 9.53479 8.08729 9.53479 8.27519V9.46314C9.53479 9.65129 9.6872 9.80358 9.87526 9.80358H11.0634C11.2512 9.80358 11.4036 9.65129 11.4036 9.46314V8.27519Z" fill="#051854"/>
<path d="M5.46517 11.2451C5.46517 11.0569 5.31276 10.9048 5.1247 10.9048H3.9366C3.74876 10.9048 3.59631 11.0569 3.59631 11.2451V12.4328C3.59631 12.6209 3.74876 12.7731 3.9366 12.7731H5.1247C5.31276 12.7731 5.46517 12.6208 5.46517 12.4328V11.2451Z" fill="#051854"/>
<path d="M8.43448 11.2451C8.43448 11.0569 8.28204 10.9048 8.09435 10.9048H6.90608C6.71824 10.9048 6.5658 11.0569 6.5658 11.2451V12.4328C6.5658 12.6209 6.71824 12.7731 6.90608 12.7731H8.09435C8.28204 12.7731 8.43448 12.6208 8.43448 12.4328V11.2451Z" fill="#051854"/>
<path d="M11.4036 11.2451C11.4036 11.0569 11.2512 10.9048 11.0635 10.9048H9.87526C9.6872 10.9048 9.53479 11.0569 9.53479 11.2451V12.4328C9.53479 12.6209 9.6872 12.7731 9.87526 12.7731H11.0635C11.2512 12.7731 11.4036 12.6208 11.4036 12.4328V11.2451Z" fill="#051854"/>
<path d="M13.5282 1.67009V3.48458C13.5282 4.30472 12.8628 4.96562 12.0428 4.96562H11.1058C10.2858 4.96562 9.61163 4.30472 9.61163 3.48458V1.66357H5.38835V3.48458C5.38835 4.30472 4.71424 4.96562 3.89429 4.96562H2.95711C2.13713 4.96562 1.47184 4.30472 1.47184 3.48458V1.67009C0.755164 1.69169 0.16626 2.28471 0.16626 3.01361V13.6474C0.16626 14.39 0.768162 14.9999 1.51077 14.9999H13.4892C14.2307 14.9999 14.8337 14.3888 14.8337 13.6474V3.01361C14.8337 2.28471 14.2448 1.69169 13.5282 1.67009ZM13.093 12.9852C13.093 13.3062 12.8328 13.5665 12.5117 13.5665H2.46267C2.14162 13.5665 1.88141 13.3062 1.88141 12.9852V7.49249C1.88141 7.17144 2.14159 6.91108 2.46267 6.91108H12.5117C12.8327 6.91108 13.0929 7.17144 13.0929 7.49249L13.093 12.9852Z" fill="#051854"/>
<path d="M2.95375 3.99297H3.88057C4.16188 3.99297 4.38998 3.76521 4.38998 3.48389V0.509257C4.38998 0.227911 4.16188 0 3.88057 0H2.95375C2.6724 0 2.44434 0.227911 2.44434 0.509257V3.48389C2.44434 3.76521 2.6724 3.99297 2.95375 3.99297Z" fill="#051854"/>
<path d="M11.094 3.99297H12.0208C12.3019 3.99297 12.53 3.76521 12.53 3.48389V0.509257C12.5301 0.227911 12.302 0 12.0208 0H11.094C10.8127 0 10.5846 0.227911 10.5846 0.509257V3.48389C10.5846 3.76521 10.8127 3.99297 11.094 3.99297Z" fill="#051854"/>
</svg>
