<svg width="15" height="15" viewBox="0 0 15 15" fill="none" xmlns="http://www.w3.org/2000/svg">
<path d="M13.5303 10.229L11.4094 9.98682C10.9 9.92837 10.399 10.1037 10.0399 10.4628L8.50351 11.9992C6.14042 10.7968 4.20319 8.8679 3.00077 6.49644L4.54554 4.95166C4.9046 4.5926 5.07995 4.09159 5.0215 3.58223L4.77935 1.47798C4.67915 0.634614 3.96938 0 3.11767 0H1.6731C0.72953 0 -0.0553836 0.784917 0.00306741 1.72849C0.445625 8.85955 6.14877 14.5544 13.2714 14.9969C14.215 15.0554 14.9999 14.2705 14.9999 13.3269V11.8823C15.0083 11.0389 14.3737 10.3292 13.5303 10.229Z" fill="#051854"/>
</svg>
