<svg width="20" height="20" viewBox="0 0 20 20" fill="none" xmlns="http://www.w3.org/2000/svg">
<g clip-path="url(#clip0)">
<path d="M17.6271 7.11854C17.4397 7.11854 17.2881 7.27007 17.2881 7.45752V18.305H0.677966V1.69481H17.2881V2.03379C17.2881 2.22125 17.4397 2.37278 17.6271 2.37278C17.8146 2.37278 17.9661 2.22125 17.9661 2.03379V1.01685H0V18.9829H17.9661V7.45752C17.9661 7.27007 17.8146 7.11854 17.6271 7.11854Z" fill="#051854"/>
<path d="M19.9007 2.47221C19.7681 2.33967 19.5539 2.33967 19.4214 2.47221L9.15255 12.741L4.72204 8.31051C4.5895 8.17797 4.37526 8.17797 4.24272 8.31051C4.11017 8.44306 4.11017 8.65729 4.24272 8.78984L8.91289 13.46C8.97899 13.5261 9.06577 13.5593 9.15255 13.5593C9.23933 13.5593 9.32611 13.5261 9.39221 13.46L19.9007 2.95153C20.0332 2.81899 20.0332 2.60475 19.9007 2.47221Z" fill="#051854"/>
</g>
<defs>
<clipPath id="clip0">
<rect width="20" height="20" fill="white"/>
</clipPath>
</defs>
</svg>
