<svg width="15" height="15" viewBox="0 0 15 15" fill="none" xmlns="http://www.w3.org/2000/svg">
<g clip-path="url(#clip0)">
<path d="M14.8827 4.53593C14.7176 4.35801 14.4394 4.34775 14.2615 4.5129L13.3725 5.33836C13.3582 5.33063 13.3442 5.32328 13.3311 5.31671C13.2088 5.25563 13.0678 5.23928 12.9392 5.32415L12.9568 5.28285C12.9849 5.2169 12.9542 5.14061 12.8882 5.11252C12.8317 5.0884 12.7679 5.10774 12.733 5.1552C12.7375 5.11483 12.7401 5.07387 12.7401 5.0323C12.7401 4.42823 12.2504 3.93848 11.6463 3.93848C11.0422 3.93848 10.5525 4.42817 10.5525 5.0323C10.5525 5.07387 10.555 5.11486 10.5595 5.1552C10.5247 5.10774 10.4609 5.08843 10.4043 5.11252C10.3384 5.14061 10.3076 5.21687 10.3357 5.28285L10.3533 5.32415C10.2247 5.23925 10.0837 5.25557 9.96142 5.31668C9.86858 5.36306 9.74304 5.4373 9.60921 5.57388L8.09735 4.56962C7.89514 4.43529 7.62233 4.49037 7.488 4.69252C7.35371 4.89472 7.40872 5.16753 7.61093 5.30186C10.7459 7.3843 10.5708 7.2687 10.5925 7.28124C10.4867 8.14576 10.6163 7.40628 9.90236 11.0923C9.8885 11.1639 9.90737 11.2379 9.95372 11.2941C10.0001 11.3504 10.0692 11.3832 10.1421 11.3832C10.2063 11.3832 10.2793 11.3832 10.3592 11.3832L9.82566 14.103C9.76188 14.428 10.0104 14.7321 10.3438 14.7321C10.5908 14.7321 10.8115 14.5576 10.8608 14.3061L11.4343 11.3832C11.6098 11.3832 11.788 11.3832 11.9622 11.3832L12.3945 14.2823C12.4335 14.544 12.6586 14.732 12.9155 14.732C13.2396 14.732 13.4852 14.4443 13.4378 14.1267L13.0288 11.3832C13.0719 11.3832 13.1129 11.3832 13.1504 11.3832C13.2234 11.3832 13.2925 11.3506 13.3389 11.2942C13.3853 11.2379 13.404 11.1639 13.3901 11.0922C12.6762 7.40651 12.8095 8.1764 12.687 7.17454L13.8061 6.13535C13.8516 6.14484 13.8973 6.15633 13.943 6.1713C13.9691 6.17985 13.9978 6.17197 14.0159 6.15129C14.034 6.13058 14.0379 6.10108 14.0259 6.07635C14.0092 6.04207 13.9923 6.00964 13.9753 5.97832L14.8598 5.15702C15.0375 4.99193 15.0479 4.71382 14.8827 4.53593ZM12.163 6.46151C11.6998 6.46151 11.4545 6.46151 10.9454 6.46151L10.3645 6.07565C10.368 6.07415 10.3721 6.07307 10.3754 6.07143C10.4748 6.02177 10.5426 5.93444 10.5711 5.83547L10.59 5.87988C10.611 5.92925 10.659 5.95887 10.7095 5.95887C10.7264 5.95887 10.7437 5.95553 10.7603 5.94844C10.8262 5.92034 10.8569 5.84408 10.8288 5.77811L10.8127 5.74014C11.0133 5.97615 11.3122 6.12607 11.6462 6.12607C11.9802 6.12607 12.2791 5.97615 12.4797 5.74014L12.4635 5.77811C12.4354 5.84405 12.4662 5.92034 12.5321 5.94844C12.5487 5.95553 12.566 5.95887 12.5829 5.95887C12.6334 5.95887 12.6814 5.92925 12.7024 5.87988L12.7213 5.83547C12.7291 5.86251 12.7396 5.88867 12.7532 5.9134L12.163 6.46151Z" fill="#051854"/>
<path d="M3.48888 5.86985C4.09449 5.86985 4.58543 5.37891 4.58543 4.77331C4.58543 4.1677 4.09449 3.67676 3.48888 3.67676C2.88328 3.67676 2.39233 4.1677 2.39233 4.77331C2.39233 5.37891 2.88328 5.86985 3.48888 5.86985Z" fill="#051854"/>
<path d="M7.05678 3.6715C7.20282 3.47509 7.16204 3.1975 6.96563 3.05146C6.76926 2.90542 6.49164 2.94617 6.3456 3.1426L4.0572 6.21941C3.93459 6.21941 3.00413 6.21941 2.87443 6.21941L0.785542 3.67724C0.630181 3.48822 0.350924 3.46082 0.161814 3.61618C-0.0272674 3.77155 -0.0546013 4.05083 0.100759 4.23991L2.3105 6.92918V9.87169L1.04341 14.046C0.9581 14.327 1.11677 14.624 1.39779 14.7093C1.67944 14.7947 1.97599 14.6354 2.06109 14.3549L3.24161 10.4661H3.65349L4.03678 14.254C4.06634 14.5462 4.32717 14.7591 4.61937 14.7295C4.91155 14.6999 5.12448 14.4391 5.09489 14.1469C4.63326 9.5849 4.66534 9.89047 4.65784 9.85077V6.89695L7.05678 3.6715Z" fill="#051854"/>
<path d="M8.64805 2.76683C9.3382 2.76683 9.89767 2.20735 9.89767 1.5172C9.89767 0.827054 9.3382 0.267578 8.64805 0.267578C7.95791 0.267578 7.39844 0.827054 7.39844 1.5172C7.39844 2.20735 7.95791 2.76683 8.64805 2.76683Z" fill="#051854"/>
</g>
<defs>
<clipPath id="clip0">
<rect width="15" height="15" fill="white"/>
</clipPath>
</defs>
</svg>
