<svg width="30" height="30" viewBox="0 0 30 30" fill="none" xmlns="http://www.w3.org/2000/svg">
<g clip-path="url(#clip0)">
<path d="M20.4556 18.8135C20.362 18.5538 20.0756 18.4192 19.816 18.5128C19.5563 18.6064 19.4216 18.8928 19.5152 19.1524C19.5175 19.1588 19.52 19.1651 19.5225 19.1714C19.9783 20.3609 20.0113 21.2706 19.6125 21.6704C19.1287 22.1532 17.9236 22.0023 16.3882 21.2676C14.3327 20.2002 12.4642 18.8059 10.8559 17.1392C6.94092 13.2237 5.32555 9.38171 6.32466 8.3826C6.64347 8.13083 7.05787 8.03411 7.45522 8.11871C7.73049 8.13895 7.97008 7.93215 7.99032 7.65689C8.00988 7.3908 7.81702 7.15627 7.55218 7.12409C6.85727 7.00114 6.14429 7.20375 5.61794 7.67388C3.78665 9.50467 6.58606 14.2803 10.1492 17.8439C11.8373 19.5909 13.7989 21.051 15.9569 22.1667C16.3477 22.3538 16.7504 22.515 17.1624 22.649L13.6113 23.9955C8.86942 22.1927 5.45581 17.9889 4.66481 12.9778C4.62201 12.7051 4.36624 12.5187 4.09353 12.5615C3.82082 12.6043 3.6344 12.86 3.67719 13.1328C3.75566 13.6326 3.86062 14.1324 3.98907 14.6212C5.14 18.9819 8.17138 22.6046 12.2608 24.5063L6.41612 26.718C6.38932 26.6732 6.35559 26.6331 6.31616 26.599C4.83074 25.4064 3.89873 23.6574 3.73717 21.7594L3.50526 18.951C3.48702 18.6789 3.25161 18.4731 2.97946 18.4914C2.97428 18.4917 2.96909 18.4921 2.96397 18.4927C2.68883 18.5145 2.48347 18.7554 2.50534 19.0305C2.5054 19.0316 2.50552 19.0328 2.50565 19.034L2.74156 21.8414C2.91724 23.8701 3.86362 25.7544 5.38603 27.1068L1.21665 28.6852L1.96636 25.6084C2.03177 25.3401 1.86733 25.0695 1.599 25.0041C1.33067 24.9387 1.06015 25.1032 0.994737 25.3715L0.0196172 29.3699C-0.0461072 29.638 0.117954 29.9087 0.386099 29.9743C0.484436 29.9984 0.587708 29.9921 0.682359 29.9562L19.1752 22.9589C19.2046 22.9446 19.2324 22.9271 19.2581 22.9069C19.6583 22.8455 20.0294 22.6604 20.3192 22.3777C20.8145 21.8823 21.2408 20.8612 20.4556 18.8135Z" fill="#051854"/>
<path d="M25.1723 17.5247C22.4704 16.5133 19.5501 16.2297 16.7041 16.7026L14.9182 17.0024C14.6472 17.0546 14.4697 17.3165 14.5218 17.5876C14.5721 17.8495 14.8192 18.0257 15.0832 17.9881L16.8685 17.6907C19.5413 17.2463 22.2841 17.5128 24.8214 18.4634C24.8777 18.4833 24.9371 18.4933 24.9968 18.4929C25.2729 18.4933 25.497 18.27 25.4975 17.9939C25.4978 17.7849 25.3681 17.5978 25.1723 17.5247Z" fill="#051854"/>
<path d="M26.9491 9.78118C26.8304 9.53191 26.5321 9.42607 26.2828 9.54478L15.7869 14.5428C15.5377 14.6615 15.4318 14.9597 15.5505 15.209C15.5505 15.209 15.5505 15.2091 15.5505 15.2091C15.6692 15.4583 15.9674 15.5642 16.2166 15.4456C16.2167 15.4456 16.2167 15.4455 16.2168 15.4455L26.7127 10.4474C26.962 10.3287 27.0678 10.0305 26.9491 9.78118Z" fill="#051854"/>
<path d="M12.1438 3.3921C12.0888 3.12158 11.825 2.94683 11.5545 3.00181C11.284 3.05679 11.1092 3.32062 11.1642 3.59114C11.1654 3.59714 11.1668 3.60308 11.1682 3.60901C11.8008 6.43535 11.5401 9.38845 10.422 12.0602L9.69526 13.804C9.59024 14.0581 9.71013 14.3493 9.96366 14.4558C10.0244 14.4813 10.0897 14.4944 10.1556 14.4943C10.3573 14.4943 10.5392 14.3731 10.6169 14.1869L11.3441 12.4451C12.5421 9.58312 12.8215 6.41973 12.1438 3.3921Z" fill="#051854"/>
<path d="M27.4959 17.9929C26.6678 17.9929 25.9965 18.6642 25.9965 19.4923C25.9965 20.3205 26.6678 20.9918 27.4959 20.9918C28.324 20.9918 28.9953 20.3205 28.9953 19.4923C28.9953 18.6642 28.324 17.9929 27.4959 17.9929ZM27.4959 19.9921C27.2199 19.9921 26.9961 19.7684 26.9961 19.4923C26.9961 19.2163 27.2199 18.9925 27.4959 18.9925C27.7719 18.9925 27.9957 19.2163 27.9957 19.4923C27.9957 19.7684 27.7719 19.9921 27.4959 19.9921Z" fill="#051854"/>
<path d="M15.5005 3.99854C14.6724 3.99854 14.0011 4.66984 14.0011 5.49795C14.0011 6.32607 14.6724 6.99737 15.5005 6.99737C16.3286 6.99737 16.9999 6.32607 16.9999 5.49795C16.9999 4.66984 16.3286 3.99854 15.5005 3.99854ZM15.5005 5.99776C15.2245 5.99776 15.0007 5.77397 15.0007 5.49795C15.0007 5.22193 15.2245 4.99815 15.5005 4.99815C15.7765 4.99815 16.0003 5.22193 16.0003 5.49795C16.0003 5.77397 15.7765 5.99776 15.5005 5.99776Z" fill="#051854"/>
<path d="M11.0023 1.99922C11.5544 1.99922 12.0019 1.55168 12.0019 0.999611C12.0019 0.447541 11.5544 0 11.0023 0C10.4502 0 10.0027 0.447541 10.0027 0.999611C10.0027 1.55168 10.4502 1.99922 11.0023 1.99922Z" fill="#051854"/>
<path d="M24.9969 2.49902C24.7209 2.49902 24.4971 2.72281 24.4971 2.99883V3.49863C24.4971 3.77465 24.7209 3.99844 24.9969 3.99844C25.2729 3.99844 25.4967 3.77465 25.4967 3.49863V2.99883C25.4967 2.72281 25.2729 2.49902 24.9969 2.49902Z" fill="#051854"/>
<path d="M24.9969 0C24.7209 0 24.4971 0.223788 24.4971 0.499805V0.999611C24.4971 1.27563 24.7209 1.49942 24.9969 1.49942C25.2729 1.49942 25.4967 1.27563 25.4967 0.999611V0.499805C25.4967 0.223788 25.2729 0 24.9969 0Z" fill="#051854"/>
<path d="M26.4963 1.49951H25.9965C25.7205 1.49951 25.4967 1.7233 25.4967 1.99932C25.4967 2.27533 25.7205 2.49912 25.9965 2.49912H26.4963C26.7723 2.49912 26.9961 2.27533 26.9961 1.99932C26.9961 1.7233 26.7723 1.49951 26.4963 1.49951Z" fill="#051854"/>
<path d="M23.9973 1.49951H23.4975C23.2215 1.49951 22.9977 1.7233 22.9977 1.99932C22.9977 2.27533 23.2215 2.49912 23.4975 2.49912H23.9973C24.2733 2.49912 24.4971 2.27533 24.4971 1.99932C24.4971 1.7233 24.2733 1.49951 23.9973 1.49951Z" fill="#051854"/>
<path d="M21.4982 5.4873H18.9887C18.7127 5.4873 18.4889 5.71109 18.4889 5.98711V8.49663C18.4889 8.77265 18.7127 8.99644 18.9887 8.99644H21.4982C21.7742 8.99644 21.998 8.77265 21.998 8.49663V5.98711C21.998 5.71109 21.7742 5.4873 21.4982 5.4873ZM20.9984 7.99683H19.4885V6.48691H20.9984V7.99683Z" fill="#051854"/>
<path d="M17.8572 9.66104C17.6737 9.46518 17.3684 9.44919 17.1654 9.6248L12.1674 14.1231C11.9623 14.3077 11.9458 14.6237 12.1304 14.8288C12.3151 15.0338 12.631 15.0504 12.8361 14.8658L17.8342 10.3675C18.0357 10.1788 18.046 9.86252 17.8572 9.66104Z" fill="#051854"/>
<path d="M26.996 11.4956C26.72 11.4956 26.4962 11.7194 26.4962 11.9954V12.4952C26.4962 12.7712 26.72 12.995 26.996 12.995C27.272 12.995 27.4958 12.7712 27.4958 12.4952V11.9954C27.4958 11.7194 27.272 11.4956 26.996 11.4956Z" fill="#051854"/>
<path d="M29.1168 11.4097L28.7634 11.0563C28.5648 10.8645 28.2485 10.87 28.0567 11.0686C27.8696 11.2623 27.8696 11.5693 28.0567 11.7631L28.41 12.1164C28.6086 12.3082 28.925 12.3027 29.1168 12.1042C29.3039 11.9105 29.3039 11.6034 29.1168 11.4097Z" fill="#051854"/>
<path d="M29.4951 9.49634H28.9953C28.7193 9.49634 28.4955 9.72013 28.4955 9.99614C28.4955 10.2722 28.7193 10.4959 28.9953 10.4959H29.4951C29.7711 10.4959 29.9949 10.2722 29.9949 9.99614C29.9949 9.72013 29.7711 9.49634 29.4951 9.49634Z" fill="#051854"/>
<path d="M29.1046 7.87588C28.9109 7.68883 28.6038 7.68883 28.4101 7.87588L28.0567 8.22924C27.8616 8.42448 27.8616 8.74092 28.0569 8.93609C28.1506 9.02974 28.2777 9.08241 28.4101 9.08241C28.5427 9.08241 28.6698 9.02968 28.7635 8.93596L29.1168 8.5826C29.3086 8.38406 29.3031 8.06762 29.1046 7.87588Z" fill="#051854"/>
<path d="M26.996 6.99731C26.72 6.99731 26.4962 7.2211 26.4962 7.49712V7.99692C26.4962 8.27294 26.72 8.49673 26.996 8.49673C27.272 8.49673 27.4958 8.27294 27.4958 7.99692V7.49712C27.4958 7.2211 27.272 6.99731 26.996 6.99731Z" fill="#051854"/>
<path d="M25.9355 8.22927L25.5821 7.87591C25.3836 7.68417 25.0672 7.6896 24.8754 7.88815C24.6883 8.08183 24.6883 8.3889 24.8754 8.58264L25.2288 8.936C25.4273 9.1278 25.7437 9.1223 25.9355 8.92375C26.1226 8.73002 26.1226 8.42295 25.9355 8.22927Z" fill="#051854"/>
<path d="M5.97966 2.16108C5.92081 1.98027 5.76443 1.84857 5.57632 1.82121L4.10939 1.60779L3.45514 0.278812C3.30933 0.0312205 2.99039 -0.0513099 2.7428 0.0945083C2.6667 0.139303 2.60329 0.202716 2.55849 0.278812L1.90125 1.60779L0.434321 1.82121C0.161114 1.86063 -0.0283742 2.1141 0.0110479 2.3873C0.0267293 2.49607 0.0778344 2.5966 0.156429 2.67338L1.21752 3.70798L0.967613 5.16891C0.919631 5.44074 1.10106 5.70001 1.37289 5.74799C1.48235 5.7673 1.59506 5.74962 1.69333 5.6977L3.00532 5.00597L4.31731 5.6957C4.56165 5.82415 4.86384 5.73025 4.99229 5.48591C5.04346 5.38863 5.06108 5.27724 5.04253 5.16891L4.79262 3.70798L5.85421 2.67338C5.99009 2.54037 6.0387 2.34182 5.97966 2.16108ZM3.90497 3.17568C3.78726 3.29033 3.73347 3.45551 3.76102 3.61751L3.88498 4.33973L3.23773 3.99836C3.09222 3.92195 2.91842 3.92195 2.77291 3.99836L2.12316 4.33923L2.24711 3.61701C2.27517 3.45564 2.22231 3.2907 2.10567 3.17568L1.58037 2.66438L2.30559 2.55892C2.4684 2.53531 2.60916 2.43303 2.68194 2.28553L3.00532 1.62929L3.32919 2.28553C3.40191 2.43291 3.54242 2.53512 3.70505 2.55892L4.42976 2.66438L3.90497 3.17568Z" fill="#051854"/>
<path d="M28.3065 25.0528H28.3045L28.0985 24.744C26.9439 23.0173 25.1283 21.8433 23.08 21.4987C22.8067 21.4597 22.5536 21.6497 22.5146 21.9229C22.4769 22.187 22.6532 22.434 22.9151 22.4843C24.3925 22.7351 25.7389 23.4857 26.7291 24.6105C25.8966 24.7603 25.1685 25.2603 24.7299 25.9835C24.1916 26.9475 24.5367 28.1654 25.5008 28.7037C26.4649 29.242 27.6827 28.8968 28.221 27.9327C28.4266 27.5358 28.5376 27.0967 28.5454 26.6497C29.0772 27.4221 29.1197 28.4308 28.6548 29.2452C28.514 29.4826 28.5923 29.7892 28.8297 29.9301C29.0671 30.0709 29.3737 29.9926 29.5146 29.7552C29.5191 29.7476 29.5234 29.7399 29.5275 29.732C30.4426 28.0974 29.9036 26.0319 28.3065 25.0528ZM27.3493 27.4449C27.0826 27.9283 26.4745 28.1038 25.9912 27.8371C25.5079 27.5703 25.3322 26.9622 25.599 26.4789C25.6005 26.4762 25.602 26.4735 25.6035 26.4708C25.8985 25.9879 26.396 25.6641 26.957 25.5901C27.0439 25.5878 27.1299 25.6077 27.2069 25.6481C27.6287 25.8835 27.6512 26.9041 27.3493 27.4449Z" fill="#051854"/>
</g>
<defs>
<clipPath id="clip0">
<rect width="30" height="30" fill="white"/>
</clipPath>
</defs>
</svg>
