<svg width="30" height="30" viewBox="0 0 30 30" fill="none" xmlns="http://www.w3.org/2000/svg">
<path d="M12.737 8.95132C12.7156 8.68385 12.4813 8.48473 12.2138 8.50566C11.9463 8.52704 11.7468 8.76128 11.7682 9.02881L11.9941 11.8529C12.0145 12.1072 12.2272 12.3001 12.478 12.3001C12.491 12.3001 12.5041 12.2996 12.5173 12.2986C12.7848 12.2772 12.9843 12.0429 12.9629 11.7754L12.737 8.95132Z" fill="#051854"/>
<path d="M12.1044 7.63041C12.1174 7.63041 12.1305 7.6299 12.1436 7.62886C12.4112 7.60748 12.6107 7.37324 12.5893 7.10571L12.5335 6.40838C12.5121 6.14091 12.2778 5.94154 12.0103 5.96273C11.7428 5.98411 11.5433 6.21834 11.5647 6.48588L11.6205 7.1832C11.6408 7.43752 11.8535 7.63041 12.1044 7.63041Z" fill="#051854"/>
<path d="M29.514 22.0302H25.8531V12.149C25.8531 11.8807 25.6356 11.6631 25.3672 11.6631H23.7797V10.5027C24.6712 10.284 25.3348 9.47852 25.3348 8.52052C25.3348 7.5821 23.9876 5.13513 23.7175 4.65409C23.6314 4.50091 23.4694 4.40605 23.2937 4.40605C23.1181 4.40605 22.956 4.50091 22.87 4.65409C22.5999 5.13513 21.2527 7.5821 21.2527 8.52052C21.2527 9.47852 21.9163 10.284 22.8078 10.5027V11.6631H21.2203C20.9519 11.6631 20.7343 11.8807 20.7343 12.149V22.0302H19.6328V16.8143C19.6328 16.5459 19.4152 16.3283 19.1469 16.3283H18.0778V15.1468C18.6797 14.9435 19.1145 14.3738 19.1145 13.7041C19.1145 13.0639 18.2799 11.3885 18.0241 10.8903C17.9409 10.7283 17.774 10.6264 17.5918 10.6264C17.4096 10.6264 17.2427 10.7283 17.1595 10.8903C16.9037 11.3885 16.0691 13.0639 16.0691 13.7041C16.0691 14.3738 16.5039 14.9435 17.1058 15.1468V16.3283H16.0367C15.7683 16.3283 15.5508 16.5459 15.5508 16.8143V22.0302H9.78402V17.7975C11.2064 17.6758 12.5482 17.0248 13.5229 15.969C14.6081 14.7936 15.1573 13.2048 15.0297 11.6101L14.4478 4.33497C14.4275 4.08234 14.2166 3.8877 13.9633 3.8877H4.63283C4.37948 3.8877 4.16864 4.08234 4.14842 4.33491L3.56644 11.6101C3.43886 13.2047 3.98806 14.7935 5.07324 15.9689C6.04801 17.0248 7.38972 17.6758 8.81216 17.7975V22.0302H0.485961C0.217581 22.0302 0 22.2478 0 22.5162C0 22.7846 0.217581 23.0022 0.485961 23.0022H5.67428L6.96246 25.0236C6.71754 25.0994 6.45739 25.1404 6.1879 25.1404C5.91952 25.1404 5.70194 25.358 5.70194 25.6264C5.70194 25.8947 5.91952 26.1123 6.1879 26.1123H25.3672C25.6356 26.1123 25.8531 25.8947 25.8531 25.6264V23.0022H29.514C29.7824 23.0022 30 22.7846 30 22.5162C30 22.2478 29.7824 22.0302 29.514 22.0302ZM22.2246 8.52052C22.2246 8.12437 22.7635 6.93947 23.2951 5.91415C24.0281 7.31852 24.3629 8.26245 24.3629 8.52052C24.3629 9.11003 23.8832 9.58964 23.2937 9.58964C22.7042 9.58964 22.2246 9.11003 22.2246 8.52052ZM17.041 13.7041C17.042 13.5142 17.2852 12.895 17.5918 12.2259C17.8983 12.8948 18.1415 13.514 18.1425 13.7041C18.1425 14.0078 17.8955 14.2549 17.5918 14.2549C17.2881 14.2549 17.041 14.0078 17.041 13.7041ZM16.5227 17.3002H18.6609V22.0302H16.5227V17.3002ZM4.53525 11.6876L5.08147 4.85962H13.5146L14.0609 11.6876C14.1028 12.2114 14.0598 12.726 13.9389 13.2181H4.65719C4.53628 12.726 4.49333 12.2114 4.53525 11.6876ZM5.78734 15.3097C5.47231 14.9685 5.21449 14.5916 5.01434 14.1901H13.5818C13.3817 14.5916 13.1239 14.9685 12.8088 15.3097C11.8938 16.3008 10.647 16.8467 9.29806 16.8467C7.94916 16.8467 6.70231 16.3008 5.78734 15.3097ZM7.82346 24.5661L6.82678 23.0022H8.76628C8.64797 23.6311 8.30482 24.1813 7.82346 24.5661ZM8.64298 25.1404C8.89937 24.9004 9.12045 24.6235 9.29806 24.318C9.47566 24.6235 9.69674 24.9004 9.95313 25.1404H8.64298ZM21.2203 25.1404H12.4082C11.1273 25.1404 10.0585 24.2177 9.82989 23.0022H23.1721L22.1213 24.6469C21.9238 24.9559 21.587 25.1404 21.2203 25.1404ZM24.8812 25.1404H22.9593L24.3254 23.0022H24.8812V25.1404ZM24.8812 22.0302H21.7063V12.635H24.8812V22.0302Z" fill="#051854"/>
</svg>
