<svg width="30" height="30" viewBox="0 0 30 30" fill="none" xmlns="http://www.w3.org/2000/svg">
<path d="M0 17.3438V20.625H3.75V22.9687H4.6875V20.625H25.3125V22.9687H26.25V20.625H30V17.3438H0ZM29.0626 19.6876H0.9375V18.2812H29.0625V19.6876H29.0626Z" fill="#051854"/>
<path d="M26.25 16.875V15.897C26.25 14.627 25.2168 13.5938 23.9467 13.5938H6.05326C4.78324 13.5938 3.75 14.627 3.75 15.897V16.875H4.6875V15.897C4.6875 15.1439 5.30016 14.5312 6.05326 14.5312H23.9467C24.6998 14.5312 25.3125 15.1439 25.3125 15.897V16.875H26.25Z" fill="#051854"/>
<path d="M2.8125 7.96869H27.1876V16.8749H28.125V7.03125H1.875V16.8749H2.8125V7.96869Z" fill="#051854"/>
<path d="M14.5313 13.125V11.9578C14.5313 11.0505 13.7932 10.3125 12.886 10.3125H8.20799C7.30073 10.3125 6.56262 11.0505 6.56262 11.9578V13.125H7.50012V11.9578C7.50012 11.5675 7.81764 11.2499 8.20799 11.2499H12.886C13.2763 11.2499 13.5938 11.5675 13.5938 11.9578V13.125H14.5313Z" fill="#051854"/>
<path d="M23.4375 13.125V11.9578C23.4375 11.0505 22.6994 10.3125 21.7921 10.3125H17.1141C16.2069 10.3125 15.4688 11.0505 15.4688 11.9578V13.125H16.4062V11.9578C16.4062 11.5675 16.7238 11.2499 17.1141 11.2499H21.7921C22.1824 11.2499 22.4999 11.5675 22.4999 11.9578V13.125H23.4375Z" fill="#051854"/>
</svg>
