<svg width="15" height="15" viewBox="0 0 15 15" fill="none" xmlns="http://www.w3.org/2000/svg">
<path d="M5.37109 7.82981C4.80837 7.39915 4.10695 7.14062 3.34375 7.14062C1.49705 7.14063 0 8.63767 0 10.4844V12.5469C0 12.7886 0.195803 12.9844 0.43749 12.9844H3.96606V10.8752C3.96606 9.65772 4.51271 8.56683 5.37109 7.82981Z" fill="#051854"/>
<path d="M3.34373 6.57812C4.60373 6.57812 5.62497 5.55686 5.62497 4.29689C5.62497 3.03686 4.60373 2.01562 3.34373 2.01562C2.08374 2.01562 1.0625 3.03686 1.0625 4.29689C1.0625 5.55689 2.08374 6.57812 3.34373 6.57812Z" fill="#051854"/>
<path d="M7.98292 7.8584C6.31694 7.8584 4.96606 9.20925 4.96606 10.8753V12.5469C4.96606 12.7886 5.16187 12.9844 5.40355 12.9844H6.6875H8.86915V11.1912C8.86915 10.1783 9.29591 9.26465 9.9763 8.61501C9.4446 8.14554 8.74807 7.8584 7.98292 7.8584Z" fill="#051854"/>
<path d="M6.8684 7.019C7.18996 7.22704 7.57131 7.35081 7.9829 7.35081C8.39455 7.35081 8.77591 7.22707 9.09765 7.019C9.66431 6.65232 10.0412 6.01781 10.0412 5.29272C10.0412 4.15576 9.11986 3.23438 7.9829 3.23438C6.84619 3.23438 5.9248 4.15576 5.9248 5.29272C5.9248 6.01781 6.30177 6.65232 6.8684 7.019Z" fill="#051854"/>
<path d="M12.4345 8.62549C11.0176 8.62549 9.86914 9.77419 9.86914 11.1909V12.5466C9.86914 12.7884 10.0649 12.9841 10.3066 12.9841H11H14.5625C14.8042 12.9841 15 12.7884 15 12.5466V11.1909C15 9.77419 13.8513 8.62549 12.4345 8.62549Z" fill="#051854"/>
<path d="M11.3401 7.79931C11.6406 8.04219 12.018 8.19379 12.4345 8.19379C12.8513 8.19379 13.2287 8.04219 13.5293 7.79931C13.926 7.47852 14.1848 6.99387 14.1848 6.4438C14.1848 5.47706 13.4013 4.69336 12.4345 4.69336C11.468 4.69336 10.6843 5.47706 10.6843 6.4438C10.6843 6.99387 10.9431 7.47852 11.3401 7.79931Z" fill="#051854"/>
</svg>
