<svg width="30" height="30" viewBox="0 0 30 30" fill="none" xmlns="http://www.w3.org/2000/svg">
<g clip-path="url(#clip0)">
<path d="M15 13.0001C16.93 13.0001 18.5 11.4296 18.5 9.50012C18.5 7.57062 16.93 6.00012 15 6.00012C13.07 6.00012 11.5 7.57062 11.5 9.50012C11.5 11.4296 13.07 13.0001 15 13.0001ZM15 7.00012C16.3785 7.00012 17.5 8.12162 17.5 9.50012C17.5 10.8786 16.3785 12.0001 15 12.0001C13.6215 12.0001 12.5 10.8786 12.5 9.50012C12.5 8.12162 13.6215 7.00012 15 7.00012Z" fill="#051854"/>
<path d="M14.9115 27.3785L22.582 16.3C25.459 12.4645 25.043 6.16 21.6915 2.809C19.8805 0.9975 17.4725 0 14.9115 0C12.3505 0 9.94252 0.9975 8.13152 2.8085C4.78002 6.1595 4.36402 12.464 7.22952 16.2845L14.9115 27.3785ZM8.83852 3.5155C10.461 1.8935 12.6175 1 14.9115 1C17.2055 1 19.362 1.8935 20.9845 3.5155C24.0095 6.54 24.382 12.234 21.771 15.715L14.9115 25.6215L8.04102 15.7C5.44102 12.234 5.81402 6.54 8.83852 3.5155Z" fill="#051854"/>
<path d="M21.0585 21.5037C20.7835 21.4702 20.5355 21.6672 20.5035 21.9417C20.4715 22.2162 20.6675 22.4647 20.9415 22.4967C26.1995 23.1157 29 24.7837 29 25.7502C29 27.1072 23.674 29.0002 15 29.0002C6.326 29.0002 1 27.1072 1 25.7502C1 24.7837 3.8005 23.1157 9.0585 22.4967C9.3325 22.4647 9.5285 22.2157 9.4965 21.9417C9.464 21.6672 9.216 21.4692 8.9415 21.5037C3.677 22.1237 0 23.8697 0 25.7502C0 27.8622 5.1525 30.0002 15 30.0002C24.8475 30.0002 30 27.8622 30 25.7502C30 23.8697 26.323 22.1237 21.0585 21.5037Z" fill="#051854"/>
</g>
<defs>
<clipPath id="clip0">
<rect width="30" height="30" fill="white"/>
</clipPath>
</defs>
</svg>
