<svg width="15" height="15" viewBox="0 0 15 15" fill="none" xmlns="http://www.w3.org/2000/svg">
<path d="M7.47572 2.52517C8.17302 2.52517 8.7383 1.95989 8.7383 1.26258C8.7383 0.565278 8.17302 0 7.47572 0C6.77841 0 6.21313 0.565278 6.21313 1.26258C6.21313 1.95989 6.77841 2.52517 7.47572 2.52517Z" fill="#051854"/>
<path d="M7.91549 3.12707C7.6009 3.0632 7.25885 3.066 6.94986 3.13884C4.85078 3.3848 4.1692 5.81444 4.36166 7.66699C4.44514 8.46791 5.70772 8.47631 5.6234 7.66699C5.55337 6.99186 5.58334 5.973 5.9422 5.24884C5.9422 6.12903 5.9422 7.00923 5.9422 7.88914C5.9422 7.92024 5.94528 7.94937 5.94668 7.97934C5.94584 7.99363 5.94248 8.00568 5.94248 8.02025C5.94248 10.1154 5.93884 12.2097 5.85227 14.3032C5.8139 15.2338 7.25689 15.2302 7.29499 14.3032C7.36278 12.6624 7.37987 11.0208 7.38379 9.37892C7.45214 9.3834 7.5205 9.3834 7.58885 9.37948C7.59305 11.0214 7.60958 12.663 7.67682 14.3032C7.71519 15.2302 9.15819 15.2338 9.11953 14.3032C9.03297 12.2097 9.02988 10.1154 9.02988 8.02025C9.02988 7.95525 9.0212 7.89614 9.00803 7.83928C9.00607 6.92967 8.97133 6.01922 8.98198 5.11017C9.41171 5.83769 9.45093 6.94732 9.37641 7.66643C9.29181 8.47519 10.5547 8.46707 10.6382 7.66643C10.8351 5.7755 10.1207 3.28283 7.91549 3.12707Z" fill="#051854"/>
</svg>
