<svg width="30" height="30" viewBox="0 0 30 30" fill="none" xmlns="http://www.w3.org/2000/svg">
<g clip-path="url(#clip0)">
<path d="M23.2291 28.9457L20.0822 25.7985C19.9723 25.6886 19.8233 25.6269 19.6679 25.6269C19.6676 25.6269 19.6673 25.6269 19.6671 25.6269L17.9787 25.6293C17.975 25.6293 17.9713 25.6293 17.9677 25.6293C17.0357 25.6293 16.102 25.4579 15.2282 25.1309L16.2414 24.4515C16.6561 24.1734 16.9349 23.7499 17.0266 23.2591C17.1183 22.7682 17.011 22.2726 16.7246 21.8635C16.3685 21.3549 15.795 21.0788 15.2111 21.0788C15.2016 21.0788 15.1921 21.0789 15.1825 21.079L17.5162 18.7453C18.2242 18.0373 18.2242 16.8852 17.5162 16.1771C17.344 16.0049 17.1432 15.8716 16.9245 15.7815C17.0866 15.506 17.1732 15.1912 17.1732 14.8632C17.1732 14.3781 16.9843 13.922 16.6414 13.579C16.2984 13.236 15.8423 13.0471 15.3572 13.0471C15.0292 13.0471 14.7145 13.1338 14.439 13.2959C14.3488 13.0772 14.2155 12.8764 14.0433 12.7041C13.7003 12.3611 13.2442 12.1722 12.7591 12.1722C12.274 12.1722 11.818 12.3611 11.475 12.7041L10.637 13.5421C10.5479 13.3457 10.4236 13.1648 10.2666 13.0077C9.92361 12.6647 9.46757 12.4758 8.98248 12.4758C8.49738 12.4758 8.04134 12.6647 7.69834 13.0077L7.32691 13.3791L5.81689 11.8776C5.37826 11.439 5.37826 10.7252 5.81689 10.2866C6.22781 9.87568 6.88007 9.84978 7.32146 10.2087L8.78384 11.6711C8.89828 11.7855 9.04822 11.8427 9.19816 11.8427C9.3481 11.8427 9.4981 11.7855 9.61248 11.6711C9.84128 11.4423 9.84128 11.0713 9.61248 10.8425L7.08966 8.31967C6.65103 7.88097 6.65103 7.16724 7.08966 6.72861C7.5283 6.28992 8.24209 6.28998 8.68072 6.72861L13.1009 11.1572C13.2153 11.2717 13.3652 11.3289 13.5152 11.3289C13.6651 11.3289 13.8151 11.2716 13.9295 11.1572C14.1583 10.9284 14.1583 10.5574 13.9295 10.3286L10.5698 6.96035C10.2109 6.5189 10.2369 5.8667 10.6477 5.45584C11.0864 5.0172 11.8002 5.0172 12.2388 5.45584L13.4697 6.68683C13.6986 6.9157 14.0696 6.9157 14.2983 6.68683C14.5271 6.45802 14.5272 6.08701 14.2983 5.8582L13.0674 4.6272C12.1718 3.73166 10.7146 3.73172 9.81908 4.6272C9.52312 4.92316 9.32566 5.28058 9.22529 5.65869C8.83734 5.37873 8.37304 5.22726 7.88519 5.22726C7.27166 5.22726 6.69486 5.46621 6.26103 5.89998C5.4549 6.70611 5.37486 7.96711 6.01998 8.86418C5.64181 8.96449 5.28427 9.16201 4.98826 9.45802C4.1431 10.3032 4.09599 11.6484 4.84605 12.5498C4.47626 12.652 4.1271 12.8475 3.83701 13.1376C2.94152 14.0331 2.94152 15.4903 3.83701 16.3859L4.09851 16.6474C3.10974 17.8346 2.57238 19.316 2.5746 20.8802L2.57601 21.8508L0.171851 24.2551C-0.056958 24.4839 -0.056958 24.8549 0.171851 25.0838C0.286284 25.1982 0.436226 25.2554 0.586167 25.2554C0.736108 25.2554 0.886108 25.1982 1.00048 25.0838L3.57662 22.5076C3.68671 22.3975 3.74847 22.2481 3.74824 22.0924L3.74648 20.8786C3.74437 19.4224 4.31044 18.0531 5.34023 17.0233L8.248 14.1155C8.248 14.1155 8.248 14.1154 8.24806 14.1154L8.52697 13.8365C8.64861 13.7148 8.81033 13.6478 8.98242 13.6478C9.15451 13.6478 9.31623 13.7148 9.43787 13.8365C9.55957 13.9581 9.62654 14.1199 9.62654 14.292C9.62654 14.4397 9.57685 14.5796 9.4858 14.6933L8.71125 15.4679C8.48244 15.6967 8.48244 16.0677 8.71125 16.2966C8.71177 16.2971 8.71236 16.2975 8.71283 16.298C8.71336 16.2986 8.71377 16.2991 8.71429 16.2996C8.82873 16.414 8.97867 16.4712 9.12861 16.4712C9.27855 16.4712 9.42855 16.414 9.54292 16.2996L12.3035 13.5329C12.4252 13.4112 12.5869 13.3442 12.759 13.3442C12.931 13.3442 13.0928 13.4112 13.2144 13.5329C13.4482 13.7667 13.4641 14.1369 13.2625 14.3895L10.4507 17.2075C10.2219 17.4363 10.2219 17.8073 10.4507 18.0362C10.5652 18.1505 10.7151 18.2078 10.865 18.2078C11.015 18.2078 11.165 18.1505 11.2794 18.0362L14.9016 14.4078C15.0232 14.2861 15.1849 14.2191 15.357 14.2191C15.5291 14.2191 15.6908 14.2861 15.8125 14.4078C16.0636 14.6589 16.0636 15.0676 15.8125 15.3187L12.1842 18.9408C11.9553 19.1696 11.9553 19.5407 12.1842 19.7695C12.413 19.9983 12.784 19.9983 13.0128 19.7695L15.8308 16.9577C16.0834 16.7561 16.4536 16.772 16.6874 17.0059C16.9385 17.257 16.9385 17.6657 16.6874 17.9167L12.7314 21.8728C12.4528 22.1514 12.427 22.5787 12.6702 22.8888C12.9134 23.1988 13.3345 23.2757 13.6716 23.0713L14.8667 22.3468C15.168 22.1641 15.5623 22.2471 15.7644 22.5358C15.8688 22.6848 15.9078 22.8653 15.8744 23.0441C15.841 23.2228 15.7394 23.377 15.5885 23.4783L12.8235 25.3324C11.9238 25.9358 10.8761 26.2545 9.79289 26.2545C9.79037 26.2545 9.78773 26.2545 9.78521 26.2545L7.90722 26.2518C7.90693 26.2518 7.90669 26.2518 7.9064 26.2518C7.75101 26.2518 7.60195 26.3135 7.49208 26.4234L4.91589 28.9996C4.68708 29.2284 4.68708 29.5994 4.91589 29.8283C5.03033 29.9426 5.18027 29.9999 5.33021 29.9999C5.48015 29.9999 5.63015 29.9426 5.74453 29.8283L8.14874 27.424L9.78357 27.4264C9.78667 27.4264 9.78966 27.4264 9.79283 27.4264C11.1091 27.4264 12.3827 27.039 13.4761 26.3058L14.0682 25.9087C15.2781 26.4926 16.6242 26.8013 17.9674 26.8013C17.9715 26.8013 17.9759 26.8013 17.9801 26.8013L19.4253 26.7993L22.4004 29.7744C22.5149 29.8888 22.6648 29.946 22.8148 29.946C22.9647 29.946 23.1147 29.8888 23.2291 29.7744C23.4579 29.5456 23.4579 29.1746 23.2291 28.9457ZM6.11478 14.5915C6.11472 14.5915 6.11472 14.5915 6.11466 14.5916L4.90728 15.799L4.6657 15.5574C4.22707 15.1187 4.22707 14.405 4.6657 13.9663C5.07662 13.5554 5.72888 13.5295 6.17027 13.8884L6.49406 14.2122L6.11478 14.5915Z" fill="#051854"/>
<path d="M29.8283 22.3467C29.7193 22.2372 29.5682 22.175 29.4141 22.175C29.26 22.175 29.1088 22.2372 28.9998 22.3467C28.8908 22.4557 28.8281 22.6063 28.8281 22.761C28.8281 22.9151 28.8908 23.0663 28.9998 23.1752C29.1088 23.2842 29.26 23.3469 29.4141 23.3469C29.5682 23.3469 29.7193 23.2842 29.8283 23.1752C29.9373 23.0656 30 22.9151 30 22.761C30 22.6062 29.9373 22.4557 29.8283 22.3467Z" fill="#051854"/>
<path d="M28.2527 20.7708L26.8531 19.3712L26.8565 17.0021C26.859 15.2122 26.3335 13.4804 25.3366 11.9937L22.7576 8.14774C22.4053 7.62239 21.8689 7.26913 21.2472 7.153C20.6254 7.03687 19.9977 7.17274 19.4796 7.53556C18.6307 8.12999 18.2931 9.20249 18.5933 10.1532L17.0619 8.62183C16.8331 8.39308 16.4621 8.39308 16.2333 8.62183C16.0044 8.85063 16.0044 9.22165 16.2333 9.45052L19.5229 12.7402C19.8273 13.0445 20.2941 13.0727 20.6328 12.807C20.9714 12.5413 21.0553 12.0813 20.8322 11.7132L19.8243 10.0508C19.5079 9.5288 19.6517 8.84565 20.1517 8.49556C20.4098 8.31491 20.7226 8.24724 21.032 8.30507C21.3417 8.3629 21.6088 8.53886 21.7842 8.80048L24.3632 12.6465C25.2299 13.9389 25.6868 15.4445 25.6846 17.0005L25.6809 19.6127C25.6807 19.7684 25.7424 19.9178 25.8525 20.0279L27.4241 21.5995C27.5385 21.7138 27.6884 21.7711 27.8384 21.7711C27.9883 21.7711 28.1383 21.7138 28.2527 21.5995C28.4815 21.3707 28.4815 20.9996 28.2527 20.7708Z" fill="#051854"/>
<path d="M15.6844 7.24468C15.576 7.13569 15.4248 7.073 15.2707 7.073C15.116 7.073 14.9655 7.13569 14.8559 7.24468C14.7469 7.35366 14.6842 7.50484 14.6842 7.65894C14.6842 7.81363 14.7469 7.96421 14.8559 8.0732C14.9655 8.18218 15.116 8.24488 15.2707 8.24488C15.4248 8.24488 15.5754 8.18218 15.6844 8.0732C15.794 7.96421 15.8566 7.81304 15.8566 7.65894C15.8566 7.50484 15.794 7.35366 15.6844 7.24468Z" fill="#051854"/>
<path d="M21.1222 16.3374C21.351 16.1086 21.351 15.7376 21.1222 15.5087C20.8934 15.28 20.5224 15.28 20.2935 15.5087L20.0379 15.7643C18.9437 16.8585 18.9437 18.639 20.0379 19.7332C20.1524 19.8475 20.3023 19.9048 20.4522 19.9048C20.6022 19.9048 20.7522 19.8475 20.8666 19.7332C21.0954 19.5043 21.0954 19.1333 20.8666 18.9045C20.2293 18.2672 20.2293 17.2302 20.8666 16.5929L21.1222 16.3374Z" fill="#051854"/>
<path d="M27.9668 3.16431C27.5943 3.16431 27.2302 3.27001 26.9154 3.46331C26.6005 3.27001 26.2364 3.16431 25.864 3.16431C24.7428 3.16431 23.8307 4.09313 23.8307 5.23472C23.8307 5.88171 24.2959 6.65872 25.2528 7.61028C25.8971 8.25095 26.5327 8.73856 26.5595 8.75901C26.6645 8.83935 26.7899 8.87948 26.9154 8.87948C27.0408 8.87948 27.1662 8.83935 27.2713 8.75901C27.298 8.73856 27.9336 8.25089 28.5779 7.61028C29.5348 6.65878 30 5.88171 30 5.23472C30 4.09308 29.0879 3.16431 27.9668 3.16431ZM26.9152 7.54395C25.936 6.73067 25.0026 5.69298 25.0026 5.23472C25.0026 4.73925 25.389 4.33618 25.864 4.33618C26.1002 4.33618 26.3206 4.43409 26.4847 4.61198C26.5957 4.73222 26.7518 4.8006 26.9154 4.8006C27.079 4.8006 27.2351 4.73222 27.346 4.61198C27.5101 4.43415 27.7305 4.33618 27.9668 4.33618C28.4417 4.33618 28.8281 4.73925 28.8281 5.23472C28.8281 5.69181 27.8945 6.72979 26.9152 7.54395Z" fill="#051854"/>
<path d="M4.13607 0.000244143C3.76359 0.000244143 3.39949 0.105947 3.08467 0.299248C2.76984 0.105947 2.40574 0.000244143 2.03326 0.000244143C0.912129 0.00018555 0 0.928955 0 2.0706C0 2.71759 0.465176 3.4946 1.42213 4.44616C2.06643 5.08683 2.70205 5.5745 2.72877 5.59495C2.83377 5.67528 2.95922 5.71542 3.08467 5.71542C3.21012 5.71542 3.33551 5.67528 3.44057 5.59495C3.46734 5.5745 4.10291 5.08683 4.74721 4.44622C5.70416 3.49466 6.16934 2.71765 6.16934 2.07065C6.16934 0.929014 5.25721 0.000244143 4.13607 0.000244143ZM3.08449 4.37983C2.10521 3.56655 1.17188 2.52892 1.17188 2.0706C1.17188 1.57513 1.5583 1.17206 2.03326 1.17206C2.26951 1.17206 2.48994 1.26997 2.654 1.44786C2.76498 1.5681 2.92107 1.63647 3.08467 1.63647C3.24826 1.63647 3.40441 1.5681 3.51533 1.44786C3.67939 1.27003 3.89982 1.17206 4.13607 1.17206C4.61103 1.17206 4.99746 1.57513 4.99746 2.0706C4.99746 2.52763 4.06377 3.56567 3.08449 4.37983Z" fill="#051854"/>
</g>
<defs>
<clipPath id="clip0">
<rect width="30" height="30" fill="white"/>
</clipPath>
</defs>
</svg>
