<svg width="15" height="15" viewBox="0 0 15 15" fill="none" xmlns="http://www.w3.org/2000/svg">
<path fill-rule="evenodd" clip-rule="evenodd" d="M7.5 0C3.36 0 0 3.36 0 7.5C0 11.64 3.36 15 7.5 15C11.64 15 15 11.64 15 7.5C15 3.36 11.64 0 7.5 0ZM7.5 2.25C8.745 2.25 9.75 3.255 9.75 4.5C9.75 5.745 8.745 6.75 7.5 6.75C6.255 6.75 5.25 5.745 5.25 4.5C5.25 3.255 6.255 2.25 7.5 2.25ZM3 10.4848C3.9675 11.9398 5.625 12.8998 7.5 12.8998C9.375 12.8998 11.0325 11.9398 12 10.4848C11.9775 8.9923 8.9925 8.1748 7.5 8.1748C6 8.1748 3.0225 8.9923 3 10.4848Z" fill="#051854"/>
</svg>
