<svg width="20" height="20" viewBox="0 0 20 20" fill="none" xmlns="http://www.w3.org/2000/svg">
<g clip-path="url(#clip0)">
<path d="M6.28198 6.62102L1.66386 2.00053C2.25994 1.40446 2.85483 0.807193 3.45209 0.20993C3.72821 -0.0661853 4.17378 -0.0709255 4.45109 0.201635L8.04888 3.80299C8.32381 4.07792 8.32381 4.5306 8.04533 4.8079L7.25727 5.59477L6.52373 6.32832C6.43367 6.41957 6.3519 6.51674 6.28198 6.62102ZM10.0812 14.1472C9.32517 13.4967 8.59993 12.8058 7.89601 12.103C7.19328 11.3956 6.50477 10.6727 5.85299 9.91308C5.31972 9.29685 5.21544 8.40452 5.49392 7.6532L0.753746 2.91183C-0.349531 4.04592 -0.20851 6.85803 1.00024 9.32885C1.51928 10.3978 2.19239 11.3624 2.88801 12.2796C3.58245 13.1897 4.34443 14.0501 5.14671 14.8583C5.95135 15.6653 6.80695 16.4308 7.71944 17.1253C8.63666 17.8233 9.60366 18.4916 10.6655 19.0095C13.1398 20.217 15.9531 20.3498 17.086 19.2453L12.3447 14.5039C11.5933 14.7824 10.6998 14.6793 10.0812 14.1472ZM19.7927 15.5468L16.1949 11.9478C15.9188 11.6752 15.4661 11.6752 15.19 11.9514H15.1876L14.3972 12.7406L13.6684 13.473C13.5783 13.563 13.4799 13.6424 13.3757 13.7159L17.9926 18.3352C18.5899 17.7367 19.1859 17.1418 19.7844 16.5458C20.0629 16.2697 20.0688 15.8229 19.7927 15.5468Z" fill="#051854"/>
</g>
<defs>
<clipPath id="clip0">
<rect width="20" height="20" fill="white"/>
</clipPath>
</defs>
</svg>
