<svg width="20" height="20" viewBox="0 0 20 20" fill="none" xmlns="http://www.w3.org/2000/svg">
<g clip-path="url(#clip0)">
<path d="M14.9533 2.05161C13.6304 0.728674 11.8713 0 10.0005 0C8.12936 0 6.37068 0.728674 5.04775 2.05161C2.59947 4.49952 2.29522 9.10532 4.38883 11.8958L10.0005 20L15.6038 11.9072C17.7059 9.10532 17.4016 4.49952 14.9533 2.05161ZM10.0652 9.4965C8.65569 9.4965 7.50843 8.34925 7.50843 6.93975C7.50843 5.53025 8.65569 4.383 10.0652 4.383C11.4747 4.383 12.6219 5.53025 12.6219 6.93975C12.6219 8.34925 11.4747 9.4965 10.0652 9.4965Z" fill="#051854"/>
</g>
<defs>
<clipPath id="clip0">
<rect width="20" height="20" fill="white"/>
</clipPath>
</defs>
</svg>
