<svg width="30" height="30" viewBox="0 0 30 30" fill="none" xmlns="http://www.w3.org/2000/svg">
<g clip-path="url(#clip0)">
<path d="M25.243 22.9246C25 22.9246 24.803 23.1216 24.803 23.3646V27.8C24.803 28.5278 24.2109 29.12 23.483 29.12H5.19687V6.68059C5.19687 6.43754 4.99988 6.2406 4.75688 6.2406C4.51389 6.2406 4.31689 6.43754 4.31689 6.68059V29.56C4.31689 29.803 4.51389 30 4.75688 30H23.483C24.6961 30 25.6829 29.0131 25.6829 27.8V23.3646C25.683 23.1216 25.486 22.9246 25.243 22.9246Z" fill="#051854"/>
<path d="M23.483 0H4.75688C4.51389 0 4.31689 0.19694 4.31689 0.43999V4.92067C4.31689 5.16373 4.51389 5.36066 4.75688 5.36066C4.99988 5.36066 5.19687 5.16373 5.19687 4.92067V0.87998H23.483C24.2108 0.87998 24.803 1.47215 24.803 2.19995V21.6047C24.803 21.8477 25 22.0447 25.2429 22.0447C25.4859 22.0447 25.6829 21.8477 25.6829 21.6047V2.19995C25.683 0.986869 24.6961 0 23.483 0Z" fill="#051854"/>
<path d="M20.9249 10.5804C20.9552 10.8215 21.1748 10.9928 21.4163 10.9622C21.6574 10.9319 21.8283 10.7119 21.7981 10.4708C21.6879 9.59343 21.4127 8.77176 21.0068 8.03469C20.9404 7.91378 20.8703 7.7951 20.7965 7.67853C19.6952 5.92772 17.8815 4.78034 15.8379 4.53231C15.2051 4.45481 14.5616 4.46508 13.9318 4.56422C11.7768 4.89985 9.90188 6.24012 8.88967 8.22987C8.88257 8.24378 8.87629 8.25803 8.87078 8.27246C8.40879 9.1941 8.14819 10.2334 8.14819 11.3326C8.14819 12.4318 8.40879 13.4712 8.87078 14.3928C8.87629 14.4072 8.88257 14.4215 8.88967 14.4354C9.90188 16.4251 11.7768 17.7654 13.9318 18.101C14.4996 18.1904 15.0789 18.2077 15.651 18.1532C17.9797 17.9346 20.0333 16.5525 21.1104 14.4354C21.1141 14.4282 21.1169 14.4207 21.1202 14.4133C21.4415 13.7762 21.6639 13.0891 21.7729 12.3756C21.8097 12.1353 21.6447 11.9109 21.4045 11.8742C21.1642 11.8376 20.9398 12.0025 20.9031 12.2426C20.8271 12.7398 20.6872 13.2218 20.4915 13.6791C19.8104 13.4329 19.0614 13.2354 18.2687 13.0905C18.34 12.5238 18.3775 11.9342 18.3775 11.3327C18.3775 10.7311 18.3399 10.1416 18.2687 9.57489C19.0621 9.42981 19.8117 9.23211 20.4932 8.98566C20.7066 9.48443 20.8545 10.0193 20.9249 10.5804ZM15 17.3044C14.4062 17.3044 13.795 16.7135 13.323 15.6831C13.0741 15.14 12.8786 14.5097 12.7405 13.8234C13.47 13.7301 14.2293 13.6811 15 13.6811C15.7707 13.6811 16.53 13.7301 17.2595 13.8234C17.1214 14.5097 16.9259 15.14 16.6771 15.6831C16.2051 16.7135 15.5938 17.3044 15 17.3044ZM12.5229 16.0496C12.6832 16.3996 12.8596 16.7093 13.0495 16.9769C11.7402 16.5232 10.6364 15.6262 9.91848 14.4661C10.5193 14.2562 11.1767 14.0864 11.8708 13.9586C12.0229 14.7277 12.242 15.4366 12.5229 16.0496ZM9.50876 13.6789C9.19965 12.9582 9.02817 12.1651 9.02817 11.3326C9.02817 10.5 9.19965 9.70689 9.50876 8.98625C10.1898 9.23241 10.9387 9.42987 11.7314 9.57478C11.6601 10.1415 11.6226 10.731 11.6226 11.3326C11.6226 11.9341 11.6602 12.5237 11.7314 13.0904C10.9387 13.2353 10.1898 13.4328 9.50876 13.6789ZM9.91848 8.19901C10.6365 7.03896 11.7402 6.14185 13.0495 5.68813C12.8597 5.95582 12.6832 6.26552 12.5229 6.6154C12.242 7.22839 12.0229 7.93742 11.8708 8.70641C11.1767 8.5787 10.5193 8.40886 9.91848 8.19901ZM13.323 6.982C13.795 5.95166 14.4062 5.36072 15 5.36072C15.5938 5.36072 16.2051 5.9516 16.6771 6.982C16.9259 7.52518 17.1214 8.15548 17.2595 8.84175C16.5301 8.93509 15.7708 8.98408 15 8.98408C14.2293 8.98408 13.47 8.93509 12.7405 8.84175C12.8786 8.15543 13.0741 7.52518 13.323 6.982ZM20.0832 14.4667C19.7663 14.9799 19.3714 15.4469 18.908 15.8483C18.3296 16.3493 17.6644 16.7288 16.9519 16.9751C17.1412 16.7078 17.3172 16.3987 17.4771 16.0497C17.7579 15.4367 17.9771 14.7277 18.1292 13.9587C18.8239 14.0866 19.4819 14.2565 20.0832 14.4667ZM17.4974 11.3326C17.4974 11.8889 17.4636 12.4327 17.3994 12.9541C16.6236 12.8535 15.8169 12.8011 15 12.8011C14.183 12.8011 13.3763 12.8535 12.6005 12.9541C12.5364 12.4327 12.5025 11.889 12.5025 11.3326C12.5025 10.7762 12.5364 10.2325 12.6005 9.711C13.3763 9.81167 14.183 9.864 15 9.864C15.8169 9.864 16.6235 9.81167 17.3994 9.711C17.4636 10.2325 17.4974 10.7762 17.4974 11.3326ZM18.1292 8.70647C17.9771 7.93748 17.7579 7.22845 17.4771 6.61546C17.3172 6.2664 17.1412 5.95729 16.9519 5.69007C18.2554 6.1422 19.3624 7.03439 20.0829 8.1986C19.4816 8.40863 18.8238 8.57858 18.1292 8.70647Z" fill="#051854"/>
<path d="M8.58818 21.6458H21.4118C21.6548 21.6458 21.8518 21.4489 21.8518 21.2059C21.8518 20.9628 21.6548 20.7659 21.4118 20.7659H8.58818C8.34519 20.7659 8.14819 20.9628 8.14819 21.2059C8.14819 21.4489 8.34519 21.6458 8.58818 21.6458Z" fill="#051854"/>
<path d="M10.3167 23.2716C10.0737 23.2716 9.87671 23.4685 9.87671 23.7116C9.87671 23.9546 10.0737 24.1516 10.3167 24.1516H19.6832C19.9262 24.1516 20.1232 23.9546 20.1232 23.7116C20.1232 23.4685 19.9262 23.2716 19.6832 23.2716H10.3167Z" fill="#051854"/>
</g>
<defs>
<clipPath id="clip0">
<rect width="30" height="30" fill="white"/>
</clipPath>
</defs>
</svg>
